<svg xmlns="http://www.w3.org/2000/svg" version="1.1" viewBox="-5.0 -10.0 110.0 135.0">
 <g>
  <path d="m67 34c0-9.3711-7.6289-17-17-17s-17 7.6289-17 17 7.6289 17 17 17 17-7.6289 17-17zm-30 0c0-7.1719 5.8281-13 13-13s13 5.8281 13 13-5.8281 13-13 13-13-5.8281-13-13z"/>
  <path d="m22 71v8c0 2.2109 1.7891 4 4 4h48c2.2109 0 4-1.7891 4-4v-8c0-8.8203-7.1797-16-16-16h-24c-8.8203 0-16 7.1797-16 16zm16-12h24c6.6211 0 12 5.3789 12 12v8h-48v-8c0-6.6211 5.3789-12 12-12z"/>
 </g>
<text x="0.0" y="117.5" font-size="5.0" font-weight="bold" font-family="Arbeit Regular, Helvetica, Arial-Unicode, Arial, Sans-serif" fill="#000000">Created by tity</text><text x="0.0" y="122.5" font-size="5.0" font-weight="bold" font-family="Arbeit Regular, Helvetica, Arial-Unicode, Arial, Sans-serif" fill="#000000">from Noun Project</text></svg>